<?xml version="1.0" encoding="UTF-8" standalone="no"?>
<!-- Generator: IcoMoon.io -->

<svg
   xmlns:dc="http://purl.org/dc/elements/1.1/"
   xmlns:cc="http://creativecommons.org/ns#"
   xmlns:rdf="http://www.w3.org/1999/02/22-rdf-syntax-ns#"
   xmlns:svg="http://www.w3.org/2000/svg"
   xmlns="http://www.w3.org/2000/svg"
   xmlns:sodipodi="http://sodipodi.sourceforge.net/DTD/sodipodi-0.dtd"
   xmlns:inkscape="http://www.inkscape.org/namespaces/inkscape"
   width="512"
   height="512"
   viewBox="0 0 512 512"
   fill="#000000"
   id="svg2"
   version="1.1"
   inkscape:version="0.48.2 r9819"
   sodipodi:docname="pen.svg">
  <metadata
     id="metadata73">
    <rdf:RDF>
      <cc:Work
         rdf:about="">
        <dc:format>image/svg+xml</dc:format>
        <dc:type
           rdf:resource="http://purl.org/dc/dcmitype/StillImage" />
      </cc:Work>
    </rdf:RDF>
  </metadata>
  <defs
     id="defs71" />
  <sodipodi:namedview
     pagecolor="#ffffff"
     bordercolor="#666666"
     borderopacity="1"
     objecttolerance="10"
     gridtolerance="10"
     guidetolerance="10"
     inkscape:pageopacity="0"
     inkscape:pageshadow="2"
     inkscape:window-width="934"
     inkscape:window-height="595"
     id="namedview69"
     showgrid="false"
     inkscape:zoom="0.4609375"
     inkscape:cx="623.72881"
     inkscape:cy="175.73546"
     inkscape:window-x="0"
     inkscape:window-y="0"
     inkscape:window-maximized="0"
     inkscape:current-layer="svg2" />
  <path
     d="m 184.72358,474.37381 142.55145,0 0,39.39427 -142.55145,0 z m 0.004,-39.39366 L 82.903382,316.79732 C 174.54442,228.1602 205.09143,1.6431003 205.09143,1.6431003 l 33.81173,0 0,168.4499297 c -4.88179,2.03311 -9.45939,4.96737 -13.44705,8.82432 -16.87086,16.31784 -16.87086,42.77357 0,59.09142 16.87086,16.31784 44.22317,16.31784 61.09403,0 16.87086,-16.31785 16.87086,-42.77358 0,-59.09142 -3.98766,-3.85695 -8.56463,-6.7906 -13.44706,-8.82432 l 0,-168.4499297 33.81173,0 c 0,0 30.54701,226.5170997 122.18806,315.1542197 l -101.82339,118.18283 -142.55272,0 z"
     id="path67"
     inkscape:connector-curvature="0"
     style="fill:#ffffff" />
</svg>
